# xmcd
#
# Track frame offsets:
#   150
#   19572
#   37576
#   50885
#   70791
#   80490
#   83339
#   99292
#   117603
#   141282
#   164414
#   189227
#   211385
#   220719
#   234198
#   254492
#   267437
#   287701
#   314678
#
# Disc length: 4520 seconds
#
# Revision: 0
# Processed by: cddbd v1.5.2PL0 Copyright (c) Steve Scherf et al.
# Submitted via: GXTranscoder 2.0.1939
#
DISCID=0811a613
DTITLE=Boston - Third stage
DYEAR=1900
DGENRE=rock
TTITLE0=Amanda
TTITLE1=We´re ready
TTITLE2=the Launch
TTITLE3=Cool and the engines
TTITLE4=My Destination
TTITLE5=A new world
TTITLE6=to be a man
TTITLE7=I think I like it
TTITLE8=Can´t cha say
TTITLE9=Still in love
TTITLE10=Hollymann
TTITLE11=df
TTITLE12=df
TTITLE13=df
TTITLE14=df
TTITLE15=df
TTITLE16=df
TTITLE17=df
TTITLE18=df
EXTD=
EXTT0=
EXTT1=
EXTT2=
EXTT3=
EXTT4=
EXTT5=
EXTT6=
EXTT7=
EXTT8=
EXTT9=
EXTT10=
EXTT11=
EXTT12=
EXTT13=
EXTT14=
EXTT15=
EXTT16=
EXTT17=
EXTT18=
PLAYORDER=
